<?xml version="1.0" encoding="utf-8"?>
<svg xmlns="http://www.w3.org/2000/svg" viewBox="202.3288 260.8151 167.7479 31.9263" width="167.748px" height="31.9263px" preserveAspectRatio="none"><g id="object-3" transform="matrix(1, 0, 0, 1, 0, 1.7763568394002505e-15)"><path d="M 233.48 276.591 C 233.48 284.875 226.764 291.591 218.48 291.591 C 210.195 291.591 203.48 284.875 203.48 276.591 C 203.48 268.306 210.195 261.591 218.48 261.591 C 226.764 261.591 233.48 268.306 233.48 276.591 Z M 209.302 276.591 C 209.302 281.659 213.411 285.769 218.48 285.769 C 223.548 285.769 227.658 281.659 227.658 276.591 C 227.658 271.522 223.548 267.413 218.48 267.413 C 213.411 267.413 209.302 271.522 209.302 276.591 Z" fill="#E5E7EB" style="stroke-width: 1;" id="object-0"/><path d="M 228.4 272.886 C 229.872 272.241 231.62 272.91 231.97 274.48 C 232.48 276.769 232.449 279.16 231.861 281.458 C 231.031 284.703 229.139 287.576 226.487 289.621 C 223.835 291.666 220.574 292.764 217.225 292.741 C 213.876 292.718 210.631 291.575 208.007 289.494 C 205.383 287.412 203.531 284.513 202.746 281.257 C 201.962 278.001 202.289 274.576 203.676 271.528 C 205.064 268.48 207.431 265.983 210.402 264.437 C 212.506 263.341 214.827 262.767 217.172 262.742 C 218.78 262.726 219.83 264.275 219.536 265.856 C 219.243 267.437 217.7 268.431 216.107 268.645 C 215.061 268.786 214.04 269.107 213.09 269.601 C 211.273 270.547 209.824 272.075 208.975 273.94 C 208.126 275.805 207.926 277.9 208.406 279.892 C 208.887 281.885 210.02 283.659 211.625 284.932 C 213.231 286.206 215.216 286.905 217.265 286.919 C 219.314 286.934 221.309 286.262 222.932 285.01 C 224.555 283.759 225.713 282.001 226.22 280.016 C 226.486 278.979 226.566 277.911 226.464 276.861 C 226.31 275.261 226.927 273.532 228.4 272.886 Z" fill="#5750F1" style="stroke-width: 1;" id="object-1"/><g transform="matrix(1, 0, 0, 1, 73.19207, 40.312073)" id="object-2"><text style="fill: rgb(17, 25, 40); font-family: Arial, sans-serif; font-size: 28px; white-space: pre;" id="text-1" x="164.619" y="245.503">QuizRoom</text></g></g></svg>