<?xml version="1.0" encoding="utf-8"?>
<svg xmlns="http://www.w3.org/2000/svg" viewBox="137.615 166.8665 165.0611 32.1109" width="165.061px" height="32.1109px" preserveAspectRatio="none"><g id="object-0"><g><path opacity="0.2" d="M 167.615 183.977 C 167.615 192.262 160.899 198.977 152.615 198.977 C 144.331 198.977 137.615 192.262 137.615 183.977 C 137.615 175.693 144.331 168.977 152.615 168.977 C 160.899 168.977 167.615 175.693 167.615 183.977 Z M 143.437 183.977 C 143.437 189.046 147.546 193.155 152.615 193.155 C 157.684 193.155 161.793 189.046 161.793 183.977 C 161.793 178.908 157.684 174.799 152.615 174.799 C 147.546 174.799 143.437 178.908 143.437 183.977 Z" style="stroke-width: 1;" fill="#D1D5DB"/><path d="M 163.686 179.122 C 165.158 178.476 166.906 179.146 167.256 180.715 C 167.766 183.004 167.735 185.395 167.147 187.694 C 166.318 190.938 164.426 193.812 161.773 195.857 C 159.121 197.902 155.86 199 152.511 198.977 C 149.162 198.954 145.917 197.811 143.293 195.729 C 140.67 193.648 138.818 190.748 138.033 187.493 C 137.248 184.237 137.575 180.812 138.963 177.764 C 140.35 174.715 142.718 172.219 145.688 170.672 C 147.793 169.577 150.114 169.003 152.459 168.978 C 154.067 168.961 155.116 170.511 154.823 172.092 C 154.529 173.672 152.987 174.667 151.393 174.881 C 150.347 175.022 149.326 175.342 148.377 175.837 C 146.559 176.783 145.11 178.31 144.262 180.175 C 143.413 182.04 143.212 184.136 143.693 186.128 C 144.173 188.12 145.306 189.894 146.911 191.168 C 148.517 192.441 150.502 193.141 152.552 193.155 C 154.601 193.169 156.596 192.497 158.219 191.246 C 159.842 189.995 160.999 188.237 161.507 186.251 C 161.772 185.215 161.852 184.147 161.751 183.097 C 161.596 181.496 162.214 179.768 163.686 179.122 Z" style="stroke-width: 1;" fill="#5750F1"/><g transform="matrix(1, 0, 0, 1, 5.791407, -53.636543)" id="object-3"><g><g><text style="fill: rgb(209, 213, 219); font-family: Arial, sans-serif; font-size: 28px; white-space: pre;" x="164.619" y="245.503" id="object-2">QuizRoom</text></g></g></g></g></g></svg>